<svg xmlns="http://www.w3.org/2000/svg" viewBox="0 0 512 512">
<path style="fill:#2C8D7E;" d="M500.877,205.129l-85.7-193.571c-2.079-4.697-5.939-8.375-10.73-10.225 c-4.792-1.851-10.122-1.722-14.818,0.356L14.851,167.616c-9.78,4.33-14.198,15.768-9.868,25.548l21.787,49.21l-9.514,1.043 c-10.632,1.166-18.306,10.73-17.139,21.362l23.08,210.432c0.56,5.106,3.126,9.78,7.132,12.993c3.454,2.771,7.732,4.261,12.118,4.261 c0.702,0,1.407-0.039,2.112-0.115l407.422-44.688c10.632-1.166,18.306-10.73,17.139-21.362l-19.449-177.323l41.336-18.302 C500.788,226.347,505.206,214.909,500.877,205.129z">
</path>
<path style="fill:#FFFFFF;" d="M176.193,384.052c-6.45-8.531-18.595-10.219-27.127-3.767c-2.049,1.549-4.503,2.484-7.094,2.703 c-6.1,0.524-11.616-3.059-13.84-8.437l20.763-1.756c10.658-0.901,18.567-10.273,17.666-20.93 c-0.901-10.658-10.276-18.56-20.929-17.666l-20.762,1.756c1.291-5.673,6.127-10.125,12.226-10.641 c2.462-0.208,4.826,0.217,7.026,1.264c9.656,4.598,21.212,0.498,25.81-9.161c4.598-9.656,0.496-21.212-9.161-25.81 c-8.364-3.982-17.679-5.669-26.942-4.887c-27.426,2.319-48.174,25.465-48.019,52.539l-0.931,0.079 c-10.658,0.901-18.567,10.272-17.666,20.93c0.855,10.103,9.319,17.735,19.276,17.735c0.547,0,1.1-0.023,1.654-0.07l0.928-0.079 c4.153,25.258,26.136,43.918,51.707,43.917c1.474,0,2.964-0.062,4.459-0.188c9.895-0.838,19.295-4.436,27.187-10.403 C180.957,404.728,182.643,392.583,176.193,384.052z">
</path>
<path style="fill:#C2B175;" d="M424.366,511.967c-48.321,0-87.631-39.312-87.631-87.633s39.312-87.633,87.631-87.633 c48.322,0,87.634,39.312,87.634,87.633C512,472.655,472.688,511.967,424.366,511.967z">
</path>
<path style="fill:#237669;" d="M500.877,205.129l-85.7-193.571c-2.079-4.697-5.939-8.375-10.73-10.225 c-4.792-1.851-10.122-1.722-14.818,0.356L251.269,62.946v406.733l200.713-22.015c10.632-1.166,18.306-10.73,17.139-21.362 l-19.449-177.323l41.336-18.302C500.788,226.347,505.206,214.909,500.877,205.129z">
</path>
<path style="fill:#D1D3D4;" d="M398.758,169.716c-9.01-5.761-20.986-3.128-26.748,5.882c-1.384,2.164-3.361,3.894-5.714,4.998 c-5.539,2.599-11.954,1.158-15.907-3.11l18.862-8.853c9.682-4.545,13.848-16.076,9.303-25.759 c-4.543-9.68-16.078-13.845-25.759-9.303l-18.861,8.853c-0.758-5.768,2.231-11.622,7.772-14.222c2.237-1.05,4.604-1.469,7.031-1.254 c10.654,0.963,20.066-6.898,21.025-17.551s-6.898-20.066-17.551-21.025c-9.227-0.831-18.549,0.819-26.963,4.768 c-24.916,11.694-36.34,40.604-26.797,65.939l-0.847,0.398c-9.682,4.545-13.847,16.076-9.302,25.759 c3.296,7.022,10.268,11.142,17.543,11.142c2.755,0,5.557-0.591,8.215-1.84l0.839-0.394c9.531,16.748,27.24,26.482,45.65,26.481 c7.455-0.001,15.025-1.596,22.208-4.967c8.987-4.22,16.557-10.857,21.887-19.193C410.402,187.454,407.768,175.48,398.758,169.716z">
</path>
<path style="fill:#ECD58C;" d="M324.089,511.967c-48.321,0-87.632-39.312-87.632-87.633s39.312-87.633,87.632-87.633 c48.322,0,87.635,39.312,87.635,87.633S372.411,511.967,324.089,511.967z">
</path>
<path style="fill:#C2B175;" d="M324.089,336.702c-30.317,0-57.081,15.479-72.821,38.945v97.378 c15.739,23.465,42.505,38.944,72.821,38.944c48.322,0,87.635-39.312,87.635-87.633C411.724,376.014,372.411,336.702,324.089,336.702 z">
</path>
</svg>